<svg xmlns="http://www.w3.org/2000/svg" xmlns:xlink="http://www.w3.org/1999/xlink" width="128" height="128" viewBox="0 0 128 128" fill="none">
<path d="M128 64C128 99.3459 99.3459 128 64 128C28.6541 128 0 99.3459 0 64C0 28.6541 28.6541 0 64 0C99.3459 0 128 28.6541 128 64Z"   fill="#005ADD" >
</path>
<path d="M96.9346 86.8863C96.1799 88.9504 95.0084 89.5294 93.0661 88.5376C88.8611 86.4224 84.6181 84.2877 80.7137 81.6796C76.7072 78.998 73.0978 75.7374 69.28 72.7675C68.1093 71.8558 67.9615 71.1162 69.0886 69.9773C71.8243 67.209 71.837 67.2446 74.848 69.7851C78.0737 72.5083 81.4466 75.0653 84.7751 77.6604C85.3122 78.0447 85.898 78.352 86.5189 78.5791C88.3845 79.3533 89.7636 78.9599 90.3395 77.0429C91.197 74.2687 91.8116 71.4234 92.1734 68.5436C92.8197 63.2349 92.4487 57.8521 91.0759 52.6809C90.2212 49.5099 88.6752 48.6202 85.8881 50.2395C82.3759 52.2756 79.0234 54.5754 75.8596 57.1195C65.3215 65.5898 54.9311 74.2462 44.4352 82.768C41.4847 85.1614 38.3421 87.2961 34.6306 88.4065C32.646 89.0015 31.5133 88.5951 30.9698 86.5725C30.2749 83.99 29.6477 81.3373 29.4238 78.6782C28.5924 68.8128 28.5924 58.8949 29.4238 49.0295C29.6991 46.4635 30.208 43.9289 30.9472 41.4585C31.6097 39.0585 32.8354 38.3865 35.0241 39.4774C39.1904 41.5545 43.3567 43.7048 47.216 46.2873C51.1809 48.9274 54.81 52.108 58.5279 55.1034C60.2238 56.473 60.1759 57.174 58.4511 58.6072C55.7407 60.87 55.7632 60.8475 53.2676 58.4796C51.0591 56.3804 51.4372 55.6188 48.4578 58.2969C45.9615 60.5372 43.4045 62.7064 40.8638 64.8987C40.2879 65.3661 39.6607 65.7819 39.0594 66.2333L39.0594 66.2363C37.6895 64.3643 37.7725 61.9709 39.2608 60.6233C41.408 58.6392 43.6157 56.7512 45.8207 54.8472C46.3135 54.4153 46.8802 54.0635 47.5715 53.5611C45.1138 51.2763 42.7231 49.8071 39.9042 49.1386C38.7039 48.8569 37.8303 49.6185 37.4944 50.6903C36.8897 52.6139 36.2526 54.5659 35.99 56.556C35.1839 62.6429 35.1677 68.7293 36.8031 74.71C38.0063 79.1036 39.4466 79.8557 43.1842 77.2991C49.4463 73.0212 55.5619 68.5321 61.5199 63.8393C69.6644 57.3947 77.5429 50.6138 85.6164 44.0725C87.4756 42.6199 89.4658 41.3434 91.5588 40.2585C94.9831 38.399 96.615 39.052 97.5492 42.8986C98.2116 45.7304 98.6178 48.6202 98.765 51.5255C99.3416 61.3018 99.4563 71.0941 98.4165 80.851C98.1687 82.9151 97.671 84.9417 96.9346 86.8863Z"   fill="#FFFFFF" >
</path>
</svg>
